<?xml version="1.0" encoding="UTF-8"?>
<svg id="Layer_1" data-name="Layer 1" xmlns="http://www.w3.org/2000/svg" viewBox="0 0 184.34 192">
  <defs>
    <style>
      .cls-1 {
        fill: #166e63;
      }

      .cls-2 {
        fill: #0a7646;
      }
    </style>
  </defs>
  <path class="cls-2" d="m31.61,56.17c.55-5.85,1.03-11.55.96-12.77,0,0-2.11,3.76-10.59,7.2,0,0-6.56,1.89-6.41,8.54,0,0-4.67-8.34-.87-13.28,0,0,1.33-2.62,7.25-5.65,0,0,2.32-1.09,4.94-5.67,2.27-3.96,5.91-6.98,10.23-8.41.18-.07.36-.11.54-.18,0,0-16.39-1.62-15.84-19.06,0,0,4.23,6.61,18.35,7.16l8.48.89c.22,0,.45-.03.62-.16,1.84-1.25,12.72-8.19,24.69-8.91l13.55-1.89S108.63-.28,113.74.01c5.12.26,11.61.33,18.44,7,0,0-5.96-.91-8.91-.42,0,0-6.94.65-10.77,1.51,0,0,6.49,1.55,10.3,3.07,0,0,20.44,11.36,30.76,7.25,0,0-1.55,7.43-13.48,8.03,0,0-8.23.69-22.64-4.67,0,0-24.42-8.91-40.13-8.12,0,0,12.32,1.94,31.94,11.61l-8.61,3.11s29.74,12.48,28.33,47.44c0,0,10.61-24.75-11.72-44.26,0,0,21.68-7.07,38.03,9.41,0,0,10.77,10.32,15.93,16.93,0,0,6.03,6.74,13.06,4.03,0,0-5.16,7.03-18.79,2.58,0,0-2.18-.22-8.7-3.62,0,0-1.78,20.53-28.23,41.13,0,0,16.71-5.23,28.6-23.59,0,0,.13,27.82-29.25,38.01,0,0-8.83,3.87-33.49,9.32,0,0-39.65,9.41-50.17,28.85,0,0-.78-17.01,14.5-33.56,0,0,9.14-9.78,19.8-16.68,0,0,26.88-12.68,20.73-42.01-.36-1.67-1.22-4.33-2.32-6.69-.67-1.42-3.2-7.36-15.81-9.49,0,0,21.37,6.36,12.77,29.27-6.94,18.46-21.06,20.15-26.29,20.13-1.4,0-2.74.49-3.8,1.38-3.65,3.07-11.55,9.87-11.55,10.85,0,.84-.2,5.19-.36,8.07-.07,1.32,0,2.61.09,3.91.13,1.71-.22,4.61-4.16,5.12-4.58.6-5.56-1.2-5.78-1.91-.04-.18-.13-.36-.22-.54-.29-.6-.87-2.36-.89-7.19,0-.29-.26-.49-.55-.42-.8.2-2.25.91-2.38,3.56-.07,1.22-.22,2.42-.55,3.61-.62,2.27-1.84,5.56-3.94,7.52-.36.33-.87.49-1.36.38-2.27-.49-9.19-2.45-11.7-8.52-.09-.2-.16-.38-.25-.58-.38-.87-1.94-4.87-1.26-11.92.03-.36,0-.71-.18-1.03-.49-1.07-1.65-3.56-1.65-3.56,0,0,.54-1,1.4-2.74,7.1-14.19,11.48-29.58,12.97-45.37h.11-.03Z"/>
  <path class="cls-2" d="m58.46,6.71s-14.13.47-20.48-6.65c0,0-2.13,11.59,9.52,11.9l10.99-5.25s-.03,0-.03,0Z"/>
  <path class="cls-1" d="m59.18,164.11c-.55-.25-.82-.84-.67-1.42,1-3.76,6.61-17.1,36.07-25.4,0,0,49.07-12.14,55.82-16.43.84-.54,1.71-1.03,2.65-1.42,6.45-2.8,27.11-13.43,29.2-35.61,0,0,10.99,34.94-17.64,59.82,0,0,7.12-18.44,5.87-21.51,0,0-4.36,24.53-25.8,34.94,0,0,9.48-14.59,10.52-28.09,0,0-6.43,31.94-34.85,38.36,0,0,9.27-6.71,13.48-27.96,0,0-7.12,26.94-39.48,30.91,0,0-17.13,1.84-35.2-6.19h0l.03-.03h0Z"/>
  <path class="cls-1" d="m0,105.88s18,69.28,91.28,74.71c0,0,58.11,6.56,93.04-41.43,0,0-22.75,53-88.21,52.85C30.63,191.84,2.23,137.11,0,105.89h0Z"/>
</svg>