<?xml version="1.0" encoding="UTF-8"?>
<svg id="Layer_1" data-name="Layer 1" xmlns="http://www.w3.org/2000/svg" viewBox="0 0 489.78 510.15">
  <defs>
    <style>
      .cls-1 {
        fill: #166e63;
      }

      .cls-2 {
        fill: #0a7646;
      }
    </style>
  </defs>
  <path class="cls-2" d="m83.98,149.25c1.47-15.55,2.73-30.68,2.54-33.92,0,0-5.62,9.98-28.14,19.14,0,0-17.44,5.01-17.02,22.68,0,0-12.4-22.17-2.31-35.27,0,0,3.54-6.97,19.26-15.01,0,0,6.15-2.89,13.13-15.06,6.04-10.51,15.71-18.56,27.18-22.33.47-.19.96-.3,1.42-.47,0,0-43.55-4.31-42.08-50.64,0,0,11.24,17.56,48.75,19.02l22.52,2.35c.58,0,1.19-.07,1.66-.42,4.9-3.31,33.81-21.75,65.61-23.69l36-5.01S288.63-.73,302.22.04c13.59.7,30.84.89,48.98,18.6,0,0-15.83-2.42-23.69-1.12,0,0-18.44,1.73-28.61,4.01,0,0,17.25,4.13,27.37,8.16,0,0,54.3,30.19,81.74,19.26,0,0-4.13,19.75-35.81,21.33,0,0-21.87,1.84-60.15-12.4,0,0-64.88-23.69-106.61-21.57,0,0,32.73,5.15,84.86,30.84l-22.87,8.28s79.01,33.15,75.28,126.06c0,0,28.19-65.77-31.15-117.6,0,0,57.61-18.79,101.04,24.99,0,0,28.61,27.42,42.31,44.97,0,0,16.02,17.91,34.69,10.7,0,0-13.71,18.67-49.94,6.85,0,0-5.78-.58-23.1-9.63,0,0-4.73,54.55-75,109.27,0,0,44.39-13.9,76-62.69,0,0,.35,73.93-77.71,101,0,0-23.45,10.28-88.99,24.76,0,0-105.36,24.99-133.31,76.66,0,0-2.07-45.21,38.54-89.18,0,0,24.29-25.99,52.6-44.32,0,0,71.43-33.69,55.07-111.63-.96-4.43-3.24-11.52-6.15-17.79-1.77-3.78-8.51-19.56-42.01-25.23,0,0,56.79,16.9,33.92,77.78-18.44,49.05-55.95,53.53-69.85,53.48-3.73,0-7.27,1.31-10.09,3.66-9.7,8.16-30.68,26.23-30.68,28.84,0,2.24-.54,13.78-.96,21.45-.19,3.5,0,6.92.23,10.4.35,4.55-.58,12.24-11.05,13.59-12.17,1.59-14.78-3.19-15.36-5.08-.12-.47-.35-.96-.58-1.42-.77-1.59-2.31-6.27-2.35-19.09,0-.77-.7-1.31-1.47-1.12-2.12.54-5.97,2.42-6.32,9.47-.19,3.24-.58,6.43-1.47,9.58-1.66,6.04-4.9,14.78-10.47,19.98-.96.89-2.31,1.31-3.61,1-6.04-1.31-24.41-6.5-31.08-22.64-.23-.54-.42-1-.65-1.54-1-2.31-5.15-12.94-3.36-31.68.07-.96,0-1.89-.47-2.73-1.31-2.84-4.38-9.47-4.38-9.47,0,0,1.42-2.66,3.73-7.27,18.86-37.7,30.49-78.59,34.46-120.56h.3l-.07-.02Z"/>
  <path class="cls-2" d="m155.32,17.83S117.78,19.06,100.9.15c0,0-5.67,30.8,25.3,31.61l29.19-13.94s-.07,0-.07,0Z"/>
  <path class="cls-1" d="m157.25,436.03c-1.47-.65-2.19-2.24-1.77-3.78,2.66-9.98,17.56-45.44,95.84-67.49,0,0,130.37-32.27,148.32-43.67,2.24-1.42,4.55-2.73,7.04-3.78,17.14-7.44,72.04-35.69,77.59-94.61,0,0,29.19,92.84-46.86,158.95,0,0,18.91-48.98,15.6-57.14,0,0-11.59,65.19-68.54,92.84,0,0,25.18-38.77,27.95-74.63,0,0-17.09,84.86-92.6,101.93,0,0,24.64-17.84,35.81-74.28,0,0-18.91,71.57-104.89,82.13,0,0-45.51,4.9-93.54-16.44h0l.07-.07-.02.02Z"/>
  <path class="cls-1" d="m0,281.32s47.82,184.09,242.53,198.49c0,0,154.41,17.44,247.2-110.09,0,0-60.45,140.82-234.37,140.42C81.39,509.73,5.92,364.29,0,281.34h0v-.02Z"/>
</svg>